<svg width="19" height="19" viewBox="0 0 19 19" fill="none" xmlns="http://www.w3.org/2000/svg">
<path d="M4.55566 17.8889L16.7779 17.8889C17.3915 17.8889 17.889 17.3915 17.889 16.7778L17.889 4.55558" stroke="#61697A" stroke-width="2" stroke-linecap="round" stroke-linejoin="round"/>
<path d="M2.11111 16.5556L15.4444 16.5556C16.0581 16.5556 16.5556 16.0581 16.5556 15.4444L16.5556 2.11111C16.5556 1.49746 16.0581 1 15.4444 1L2.11111 1C1.49746 1 1 1.49746 1 2.11111L1 15.4444C1 16.0581 1.49746 16.5556 2.11111 16.5556Z" stroke="#E2BA00" stroke-width="2" stroke-linecap="round" stroke-linejoin="round"/>
<path d="M13.7073 7.04042C14.0978 6.6499 14.0978 6.01673 13.7073 5.62621C13.3167 5.23568 12.6836 5.23568 12.2931 5.62621L13.7073 7.04042ZM8.55572 10.7778L7.84861 11.4849C8.03615 11.6724 8.2905 11.7778 8.55572 11.7778C8.82093 11.7778 9.07529 11.6724 9.26282 11.4849L8.55572 10.7778ZM7.0406 7.84843C6.65008 7.4579 6.01691 7.4579 5.62639 7.84843C5.23587 8.23895 5.23587 8.87212 5.62639 9.26264L7.0406 7.84843ZM12.2931 5.62621L7.84861 10.0707L9.26282 11.4849L13.7073 7.04042L12.2931 5.62621ZM9.26282 10.0707L7.0406 7.84843L5.62639 9.26264L7.84861 11.4849L9.26282 10.0707Z" fill="white"/>
</svg>
