<svg id="Слой_1" data-name="Слой 1" xmlns="http://www.w3.org/2000/svg" xmlns:xlink="http://www.w3.org/1999/xlink" viewBox="0 0 431.02 102.52"><defs><style>.cls-1{font-size:48px;fill:#1d1d1b;stroke:#fff;font-family:LIBRARY3AM, "LIBRARY 3 AM";}.cls-1,.cls-3{stroke-miterlimit:10;}.cls-2{letter-spacing:-0.03em;}.cls-3{fill:url(#Безымянный_градиент_1589);stroke:url(#Безымянный_градиент_832);}</style><linearGradient id="Безымянный_градиент_1589" x1="76.91" y1="217.02" x2="138.4" y2="217.02" gradientUnits="userSpaceOnUse"><stop offset="0" stop-color="#f39325"/><stop offset="0.46" stop-color="#9c6539"/><stop offset="0.76" stop-color="#6f4a2d"/><stop offset="1" stop-color="#4f3624"/></linearGradient><linearGradient id="Безымянный_градиент_832" x1="76.3" y1="217.02" x2="138.9" y2="217.02" gradientUnits="userSpaceOnUse"><stop offset="0" stop-color="#9c7f66"/><stop offset="1" stop-color="#1d1d1b"/></linearGradient></defs><text class="cls-1" transform="translate(78.73 91.7)">santehelek<tspan class="cls-2" x="323.59" y="0">t</tspan></text><path class="cls-3" d="M138.4,236.73c0,17.52-13.19,26.52-31.44,26.52-12.14,0-21.41-3.48-30-8.34l5.87-16.26c7.89,4.32,16.35,7.68,24.18,7.68,9.33,0,14.51-2.88,14.51-9.6,0-11.58-7.42-14.7-14.74-18.84s-14.27-8.4-14.27-20.16c0-7.74,5.06-15.06,17.84-15.06a42.14,42.14,0,0,1,17.27,4l2.42-6.9c-5.12-2.4-9.15-3.89-19.74-3.89-13.76,0-25,7.37-25,21.95,0,13.08,7,20.58,15.89,24.84l-1.67,4.74c-12.26-5.76-19-15.66-19-29.58,0-17.87,13.93-27,29.88-27,13.41,0,18.53,2.58,25.79,6.42l-5.76,16.31c-7-3.78-13.24-5.82-20-5.82-8.58,0-13,3.66-13,10,0,9.24,5.59,12.24,11.86,15.78,8,4.5,17.16,8.94,17.16,23.22,0,5.46-2.48,14.64-19.35,14.64-6.39,0-13.64-1.92-21.53-5.76L83,252.45a51.44,51.44,0,0,0,24,5.76c8.18,0,15-2,19.64-5.64s7-9.06,7-15.84c0-13.56-6.16-22.56-20-28.5l1.62-4.74C130.22,209.85,138.4,220.17,138.4,236.73Z" transform="translate(-76.3 -170.3)"/></svg>