<svg width="132" height="31" viewBox="0 0 132 31" fill="none" xmlns="http://www.w3.org/2000/svg">
<g clip-path="url(#clip0_1152_29)">
<path d="M28 22.3915C28 28.0786 23.7064 31 17.7656 31C13.8138 31 10.7962 29.8704 8 28.2928L9.91081 23.0147C12.4792 24.417 15.2331 25.5077 17.7819 25.5077C20.819 25.5077 22.5052 24.5728 22.5052 22.3915C22.5052 18.6325 20.0898 17.6198 17.707 16.2759C15.3242 14.932 13.0619 13.5492 13.0619 9.73187C13.0619 7.21943 14.709 4.84332 18.8691 4.84332C20.8142 4.87374 22.7305 5.31634 24.4909 6.14174L25.2786 3.90197C23.612 3.12292 22.3001 2.63926 18.8529 2.63926C14.3737 2.63926 10.7148 5.0316 10.7148 9.76434C10.7148 14.0102 12.9935 16.4447 15.8874 17.8275L15.3438 19.3662C11.3529 17.4964 9.15885 14.2828 9.15885 9.76434C9.15885 3.96364 13.6934 1 18.8854 1C23.2507 1 24.9173 1.83748 27.2806 3.08396L25.4056 8.37827C23.127 7.15127 21.0957 6.48907 18.8952 6.48907C16.1022 6.48907 14.6634 7.67713 14.6634 9.73512C14.6634 12.7345 16.4831 13.7083 18.5241 14.8574C21.1283 16.3181 24.11 17.7594 24.11 22.3947C24.11 24.1671 23.3027 27.1469 17.8112 27.1469C15.7311 27.1469 13.3711 26.5237 10.8027 25.2772L9.96615 27.4943C12.3796 28.7405 15.0609 29.3822 17.7786 29.364C20.4414 29.364 22.6615 28.7148 24.1719 27.5332C25.6823 26.3517 26.4505 24.5923 26.4505 22.3915C26.4505 17.9898 24.4453 15.0684 19.9401 13.1402L20.4675 11.6016C25.3372 13.6661 28 17.016 28 22.3915Z" fill="url(#paint0_linear_1152_29)"/>
<path d="M32.9844 19.1875L30.2344 29H28.25L31.8594 17.625H33.0938L32.9844 19.1875ZM35.1797 29L32.4219 19.1875L32.2891 17.625H33.5469L37.1719 29H35.1797ZM35.2266 24.7734V26.3672H29.9297V24.7734H35.2266ZM46.1797 17.625V29H44.3203L40.3047 21.125V29H38.4688V17.625H40.3047L44.3516 25.5547V17.625H46.1797ZM52.2266 17.625V29H50.3359V17.625H52.2266ZM55.125 17.625V19.2188H47.4688V17.625H55.125ZM62.9609 27.4141V29H58.0234V27.4141H62.9609ZM58.5234 17.625V29H56.625V17.625H58.5234ZM62.2969 22.3594V23.9219H58.0234V22.3594H62.2969ZM62.9141 17.625V19.2188H58.0234V17.625H62.9141ZM70.7734 22.3594V23.9531H65.9844V22.3594H70.7734ZM66.4297 17.625V29H64.5312V17.625H66.4297ZM72.2578 17.625V29H70.3672V17.625H72.2578ZM80.7422 27.4141V29H75.8047V27.4141H80.7422ZM76.3047 17.625V29H74.4062V17.625H76.3047ZM80.0781 22.3594V23.9219H75.8047V22.3594H80.0781ZM80.6953 17.625V19.2188H75.8047V17.625H80.6953ZM88.4375 27.4141V29H83.7109V27.4141H88.4375ZM84.2109 17.625V29H82.3125V17.625H84.2109ZM96.2891 27.4141V29H91.3516V27.4141H96.2891ZM91.8516 17.625V29H89.9531V17.625H91.8516ZM95.625 22.3594V23.9219H91.3516V22.3594H95.625ZM96.2422 17.625V19.2188H91.3516V17.625H96.2422ZM103.406 25.2891H105.297C105.26 26.112 105.094 26.8125 104.797 27.3906C104.5 27.9635 104.073 28.401 103.516 28.7031C102.964 29.0052 102.289 29.1562 101.492 29.1562C100.888 29.1562 100.346 29.0469 99.8672 28.8281C99.3932 28.6094 98.9896 28.2943 98.6562 27.8828C98.3229 27.4661 98.0677 26.9583 97.8906 26.3594C97.7188 25.7604 97.6328 25.0807 97.6328 24.3203V22.3047C97.6328 21.5443 97.7214 20.8646 97.8984 20.2656C98.0807 19.6667 98.3411 19.1589 98.6797 18.7422C99.0182 18.3255 99.4297 18.0104 99.9141 17.7969C100.404 17.5781 100.956 17.4688 101.57 17.4688C102.357 17.4688 103.018 17.6198 103.555 17.9219C104.091 18.224 104.505 18.6667 104.797 19.25C105.089 19.8333 105.258 20.5443 105.305 21.3828H103.414C103.388 20.8151 103.31 20.362 103.18 20.0234C103.055 19.6797 102.862 19.4323 102.602 19.2812C102.346 19.1302 102.003 19.0547 101.57 19.0547C101.211 19.0547 100.901 19.1224 100.641 19.2578C100.385 19.3932 100.174 19.5964 100.008 19.8672C99.8464 20.1328 99.724 20.4688 99.6406 20.875C99.5625 21.276 99.5234 21.7474 99.5234 22.2891V24.3203C99.5234 24.8411 99.5573 25.3021 99.625 25.7031C99.6927 26.1042 99.8021 26.4453 99.9531 26.7266C100.104 27.0026 100.305 27.2135 100.555 27.3594C100.805 27.5 101.117 27.5703 101.492 27.5703C101.94 27.5703 102.297 27.5 102.562 27.3594C102.833 27.2188 103.034 26.9818 103.164 26.6484C103.294 26.3151 103.375 25.862 103.406 25.2891ZM110.867 17.625V29H108.977V17.625H110.867ZM113.766 17.625V19.2188H106.109V17.625H113.766Z" fill="url(#paint1_linear_1152_29)"/>
</g>
<defs>
<linearGradient id="paint0_linear_1152_29" x1="18" y1="26.5" x2="18.0002" y2="18" gradientUnits="userSpaceOnUse">
<stop offset="0.9999" stop-color="#E2BA00"/>
<stop offset="1" stop-color="#61697A"/>
</linearGradient>
<linearGradient id="paint1_linear_1152_29" x1="69" y1="25.5" x2="69" y2="23.5" gradientUnits="userSpaceOnUse">
<stop offset="0.9999" stop-color="#61697A"/>
<stop offset="1" stop-color="#E2BA00"/>
</linearGradient>
<clipPath id="clip0_1152_29">
<rect width="132" height="31" fill="white"/>
</clipPath>
</defs>
</svg>
